<mxfile host="Electron" modified="2023-05-04T21:53:34.711Z" agent="Mozilla/5.0 (Windows NT 10.0; Win64; x64) AppleWebKit/537.36 (KHTML, like Gecko) draw.io/21.2.1 Chrome/112.0.5615.87 Electron/24.1.2 Safari/537.36" etag="aXEuRy6bH_MBrZaUAr8z" version="21.2.1" type="device">
  <diagram name="Page-1" id="UetV7NDDGQFEk20XIY2t">
    <mxGraphModel dx="524" dy="613" grid="1" gridSize="10" guides="1" tooltips="1" connect="1" arrows="1" fold="1" page="1" pageScale="1" pageWidth="850" pageHeight="1100" math="0" shadow="0">
      <root>
        <mxCell id="0" />
        <mxCell id="1" parent="0" />
        <mxCell id="FWXQfIL61U-VRAvymecJ-1" value="" style="shape=umlLifeline;perimeter=lifelinePerimeter;whiteSpace=wrap;html=1;container=1;dropTarget=0;collapsible=0;recursiveResize=0;outlineConnect=0;portConstraint=eastwest;newEdgeStyle={&quot;edgeStyle&quot;:&quot;elbowEdgeStyle&quot;,&quot;elbow&quot;:&quot;vertical&quot;,&quot;curved&quot;:0,&quot;rounded&quot;:0};participant=umlActor;" vertex="1" parent="1">
          <mxGeometry x="100" y="80" width="20" height="1270" as="geometry" />
        </mxCell>
        <mxCell id="FWXQfIL61U-VRAvymecJ-2" value="Φαρμακοποιός" style="text;html=1;align=center;verticalAlign=middle;resizable=0;points=[];autosize=1;strokeColor=none;fillColor=none;" vertex="1" parent="1">
          <mxGeometry x="60" y="50" width="100" height="30" as="geometry" />
        </mxCell>
        <mxCell id="FWXQfIL61U-VRAvymecJ-3" value="" style="shape=umlLifeline;perimeter=lifelinePerimeter;whiteSpace=wrap;html=1;container=1;dropTarget=0;collapsible=0;recursiveResize=0;outlineConnect=0;portConstraint=eastwest;newEdgeStyle={&quot;edgeStyle&quot;:&quot;elbowEdgeStyle&quot;,&quot;elbow&quot;:&quot;vertical&quot;,&quot;curved&quot;:0,&quot;rounded&quot;:0};participant=umlBoundary;" vertex="1" parent="1">
          <mxGeometry x="240" y="80" width="50" height="930" as="geometry" />
        </mxCell>
        <mxCell id="FWXQfIL61U-VRAvymecJ-6" value="" style="html=1;points=[];perimeter=orthogonalPerimeter;outlineConnect=0;targetShapes=umlLifeline;portConstraint=eastwest;newEdgeStyle={&quot;edgeStyle&quot;:&quot;elbowEdgeStyle&quot;,&quot;elbow&quot;:&quot;vertical&quot;,&quot;curved&quot;:0,&quot;rounded&quot;:0};" vertex="1" parent="FWXQfIL61U-VRAvymecJ-3">
          <mxGeometry x="20" y="120" width="10" height="60" as="geometry" />
        </mxCell>
        <mxCell id="FWXQfIL61U-VRAvymecJ-4" value="κύρια&lt;br&gt;&amp;nbsp;οθόνη" style="text;html=1;align=center;verticalAlign=middle;resizable=0;points=[];autosize=1;strokeColor=none;fillColor=none;" vertex="1" parent="1">
          <mxGeometry x="240" y="40" width="60" height="40" as="geometry" />
        </mxCell>
        <mxCell id="FWXQfIL61U-VRAvymecJ-5" value="select_new_offer()" style="html=1;verticalAlign=bottom;startArrow=oval;startFill=1;endArrow=block;startSize=8;edgeStyle=elbowEdgeStyle;elbow=vertical;curved=0;rounded=0;" edge="1" parent="1" source="FWXQfIL61U-VRAvymecJ-1" target="FWXQfIL61U-VRAvymecJ-3">
          <mxGeometry width="60" relative="1" as="geometry">
            <mxPoint x="240" y="310" as="sourcePoint" />
            <mxPoint x="250" y="310" as="targetPoint" />
            <Array as="points">
              <mxPoint x="230" y="200" />
              <mxPoint x="240" y="210" />
            </Array>
          </mxGeometry>
        </mxCell>
        <mxCell id="FWXQfIL61U-VRAvymecJ-7" value="" style="shape=umlLifeline;perimeter=lifelinePerimeter;whiteSpace=wrap;html=1;container=1;dropTarget=0;collapsible=0;recursiveResize=0;outlineConnect=0;portConstraint=eastwest;newEdgeStyle={&quot;edgeStyle&quot;:&quot;elbowEdgeStyle&quot;,&quot;elbow&quot;:&quot;vertical&quot;,&quot;curved&quot;:0,&quot;rounded&quot;:0};participant=umlBoundary;" vertex="1" parent="1">
          <mxGeometry x="370" y="80" width="50" height="1000" as="geometry" />
        </mxCell>
        <mxCell id="FWXQfIL61U-VRAvymecJ-10" value="" style="html=1;points=[];perimeter=orthogonalPerimeter;outlineConnect=0;targetShapes=umlLifeline;portConstraint=eastwest;newEdgeStyle={&quot;edgeStyle&quot;:&quot;elbowEdgeStyle&quot;,&quot;elbow&quot;:&quot;vertical&quot;,&quot;curved&quot;:0,&quot;rounded&quot;:0};" vertex="1" parent="FWXQfIL61U-VRAvymecJ-7">
          <mxGeometry x="20" y="180" width="10" height="80" as="geometry" />
        </mxCell>
        <mxCell id="FWXQfIL61U-VRAvymecJ-8" value="display_categories()" style="html=1;verticalAlign=bottom;startArrow=oval;startFill=1;endArrow=block;startSize=8;edgeStyle=elbowEdgeStyle;elbow=vertical;curved=0;rounded=0;" edge="1" parent="1" source="FWXQfIL61U-VRAvymecJ-6" target="FWXQfIL61U-VRAvymecJ-7">
          <mxGeometry width="60" relative="1" as="geometry">
            <mxPoint x="300" y="260" as="sourcePoint" />
            <mxPoint x="360" y="260" as="targetPoint" />
            <Array as="points">
              <mxPoint x="300" y="260" />
              <mxPoint x="350" y="260" />
              <mxPoint x="350" y="270" />
            </Array>
            <mxPoint as="offset" />
          </mxGeometry>
        </mxCell>
        <mxCell id="FWXQfIL61U-VRAvymecJ-9" value="κατηγορίες&lt;br&gt;&amp;nbsp;προϊόντων" style="text;html=1;align=center;verticalAlign=middle;resizable=0;points=[];autosize=1;strokeColor=none;fillColor=none;" vertex="1" parent="1">
          <mxGeometry x="360" y="40" width="80" height="40" as="geometry" />
        </mxCell>
        <mxCell id="FWXQfIL61U-VRAvymecJ-11" value="select_category()" style="html=1;verticalAlign=bottom;startArrow=oval;startFill=1;endArrow=block;startSize=8;edgeStyle=elbowEdgeStyle;elbow=vertical;curved=0;rounded=0;" edge="1" parent="1" source="FWXQfIL61U-VRAvymecJ-1" target="FWXQfIL61U-VRAvymecJ-10">
          <mxGeometry width="60" relative="1" as="geometry">
            <mxPoint x="240" y="330" as="sourcePoint" />
            <mxPoint x="300" y="330" as="targetPoint" />
            <Array as="points">
              <mxPoint x="350" y="300" />
            </Array>
          </mxGeometry>
        </mxCell>
        <mxCell id="FWXQfIL61U-VRAvymecJ-12" value="" style="shape=umlLifeline;perimeter=lifelinePerimeter;whiteSpace=wrap;html=1;container=1;dropTarget=0;collapsible=0;recursiveResize=0;outlineConnect=0;portConstraint=eastwest;newEdgeStyle={&quot;edgeStyle&quot;:&quot;elbowEdgeStyle&quot;,&quot;elbow&quot;:&quot;vertical&quot;,&quot;curved&quot;:0,&quot;rounded&quot;:0};participant=umlEntity;" vertex="1" parent="1">
          <mxGeometry x="510" y="80" width="40" height="1020" as="geometry" />
        </mxCell>
        <mxCell id="FWXQfIL61U-VRAvymecJ-15" value="" style="html=1;points=[];perimeter=orthogonalPerimeter;outlineConnect=0;targetShapes=umlLifeline;portConstraint=eastwest;newEdgeStyle={&quot;edgeStyle&quot;:&quot;elbowEdgeStyle&quot;,&quot;elbow&quot;:&quot;vertical&quot;,&quot;curved&quot;:0,&quot;rounded&quot;:0};" vertex="1" parent="FWXQfIL61U-VRAvymecJ-12">
          <mxGeometry x="15" y="260" width="10" height="420" as="geometry" />
        </mxCell>
        <mxCell id="FWXQfIL61U-VRAvymecJ-13" value="προϊόντα&lt;br style=&quot;border-color: var(--border-color); background-color: rgb(255, 255, 255);&quot;&gt;&lt;span style=&quot;background-color: rgb(255, 255, 255);&quot;&gt;φαρμακείου&lt;/span&gt;" style="text;html=1;align=center;verticalAlign=middle;resizable=0;points=[];autosize=1;strokeColor=none;fillColor=none;" vertex="1" parent="1">
          <mxGeometry x="485" y="40" width="90" height="40" as="geometry" />
        </mxCell>
        <mxCell id="FWXQfIL61U-VRAvymecJ-14" value="search_products()" style="html=1;verticalAlign=bottom;startArrow=oval;startFill=1;endArrow=block;startSize=8;edgeStyle=elbowEdgeStyle;elbow=vertical;curved=0;rounded=0;" edge="1" parent="1" source="FWXQfIL61U-VRAvymecJ-10" target="FWXQfIL61U-VRAvymecJ-12">
          <mxGeometry width="60" relative="1" as="geometry">
            <mxPoint x="430" y="340" as="sourcePoint" />
            <mxPoint x="490" y="340" as="targetPoint" />
            <Array as="points">
              <mxPoint x="500" y="340" />
            </Array>
          </mxGeometry>
        </mxCell>
        <mxCell id="FWXQfIL61U-VRAvymecJ-17" value="" style="shape=umlLifeline;perimeter=lifelinePerimeter;whiteSpace=wrap;html=1;container=1;dropTarget=0;collapsible=0;recursiveResize=0;outlineConnect=0;portConstraint=eastwest;newEdgeStyle={&quot;edgeStyle&quot;:&quot;elbowEdgeStyle&quot;,&quot;elbow&quot;:&quot;vertical&quot;,&quot;curved&quot;:0,&quot;rounded&quot;:0};participant=umlBoundary;" vertex="1" parent="1">
          <mxGeometry x="650" y="80" width="50" height="910" as="geometry" />
        </mxCell>
        <mxCell id="FWXQfIL61U-VRAvymecJ-21" value="" style="html=1;points=[];perimeter=orthogonalPerimeter;outlineConnect=0;targetShapes=umlLifeline;portConstraint=eastwest;newEdgeStyle={&quot;edgeStyle&quot;:&quot;elbowEdgeStyle&quot;,&quot;elbow&quot;:&quot;vertical&quot;,&quot;curved&quot;:0,&quot;rounded&quot;:0};" vertex="1" parent="FWXQfIL61U-VRAvymecJ-17">
          <mxGeometry x="20" y="340" width="10" height="110" as="geometry" />
        </mxCell>
        <mxCell id="FWXQfIL61U-VRAvymecJ-18" value="Προιόντα" style="text;html=1;align=center;verticalAlign=middle;resizable=0;points=[];autosize=1;strokeColor=none;fillColor=none;" vertex="1" parent="1">
          <mxGeometry x="640" y="40" width="70" height="30" as="geometry" />
        </mxCell>
        <mxCell id="FWXQfIL61U-VRAvymecJ-20" value="display_products()" style="html=1;verticalAlign=bottom;startArrow=oval;startFill=1;endArrow=block;startSize=8;edgeStyle=elbowEdgeStyle;elbow=vertical;curved=0;rounded=0;" edge="1" parent="1" source="FWXQfIL61U-VRAvymecJ-12" target="FWXQfIL61U-VRAvymecJ-17">
          <mxGeometry width="60" relative="1" as="geometry">
            <mxPoint x="570" y="420" as="sourcePoint" />
            <mxPoint x="630" y="420" as="targetPoint" />
            <Array as="points">
              <mxPoint x="640" y="420" />
            </Array>
          </mxGeometry>
        </mxCell>
        <mxCell id="FWXQfIL61U-VRAvymecJ-22" value="select_product()" style="html=1;verticalAlign=bottom;startArrow=oval;startFill=1;endArrow=block;startSize=8;edgeStyle=elbowEdgeStyle;elbow=vertical;curved=0;rounded=0;" edge="1" parent="1" source="FWXQfIL61U-VRAvymecJ-1" target="FWXQfIL61U-VRAvymecJ-21">
          <mxGeometry x="-0.1775" width="60" relative="1" as="geometry">
            <mxPoint x="570" y="480" as="sourcePoint" />
            <mxPoint x="630" y="480" as="targetPoint" />
            <mxPoint as="offset" />
          </mxGeometry>
        </mxCell>
        <mxCell id="FWXQfIL61U-VRAvymecJ-23" value="check_stock()" style="html=1;verticalAlign=bottom;endArrow=open;dashed=1;endSize=8;edgeStyle=elbowEdgeStyle;elbow=vertical;curved=0;rounded=0;" edge="1" parent="1" source="FWXQfIL61U-VRAvymecJ-21" target="FWXQfIL61U-VRAvymecJ-12">
          <mxGeometry relative="1" as="geometry">
            <mxPoint x="640" y="530" as="sourcePoint" />
            <mxPoint x="560" y="530" as="targetPoint" />
            <Array as="points">
              <mxPoint x="570" y="530" />
            </Array>
          </mxGeometry>
        </mxCell>
        <mxCell id="FWXQfIL61U-VRAvymecJ-24" value="alternative" style="shape=umlFrame;whiteSpace=wrap;html=1;pointerEvents=0;fillColor=#f8cecc;strokeColor=#b85450;" vertex="1" parent="1">
          <mxGeometry x="280" y="540" width="590" height="170" as="geometry" />
        </mxCell>
        <mxCell id="FWXQfIL61U-VRAvymecJ-25" value="product out&lt;br&gt;&amp;nbsp;of stock" style="text;html=1;align=center;verticalAlign=middle;resizable=0;points=[];autosize=1;strokeColor=none;fillColor=none;" vertex="1" parent="1">
          <mxGeometry x="270" y="570" width="80" height="40" as="geometry" />
        </mxCell>
        <mxCell id="FWXQfIL61U-VRAvymecJ-26" value="" style="shape=umlLifeline;perimeter=lifelinePerimeter;whiteSpace=wrap;html=1;container=1;dropTarget=0;collapsible=0;recursiveResize=0;outlineConnect=0;portConstraint=eastwest;newEdgeStyle={&quot;edgeStyle&quot;:&quot;elbowEdgeStyle&quot;,&quot;elbow&quot;:&quot;vertical&quot;,&quot;curved&quot;:0,&quot;rounded&quot;:0};participant=umlBoundary;" vertex="1" parent="1">
          <mxGeometry x="790" y="80" width="50" height="910" as="geometry" />
        </mxCell>
        <mxCell id="FWXQfIL61U-VRAvymecJ-30" value="" style="html=1;points=[];perimeter=orthogonalPerimeter;outlineConnect=0;targetShapes=umlLifeline;portConstraint=eastwest;newEdgeStyle={&quot;edgeStyle&quot;:&quot;elbowEdgeStyle&quot;,&quot;elbow&quot;:&quot;vertical&quot;,&quot;curved&quot;:0,&quot;rounded&quot;:0};" vertex="1" parent="FWXQfIL61U-VRAvymecJ-26">
          <mxGeometry x="20" y="520" width="10" height="80" as="geometry" />
        </mxCell>
        <mxCell id="FWXQfIL61U-VRAvymecJ-28" value="μη διαθέσιμο &lt;br&gt;προϊόν" style="text;html=1;align=center;verticalAlign=middle;resizable=0;points=[];autosize=1;strokeColor=none;fillColor=none;" vertex="1" parent="1">
          <mxGeometry x="770" y="40" width="90" height="40" as="geometry" />
        </mxCell>
        <mxCell id="FWXQfIL61U-VRAvymecJ-29" value="display_out_of_Stock()" style="html=1;verticalAlign=bottom;startArrow=oval;startFill=1;endArrow=block;startSize=8;edgeStyle=elbowEdgeStyle;elbow=vertical;curved=0;rounded=0;" edge="1" parent="1" source="FWXQfIL61U-VRAvymecJ-12" target="FWXQfIL61U-VRAvymecJ-26">
          <mxGeometry x="-0.3649" width="60" relative="1" as="geometry">
            <mxPoint x="580" y="610" as="sourcePoint" />
            <mxPoint x="640" y="610" as="targetPoint" />
            <Array as="points">
              <mxPoint x="760" y="600" />
            </Array>
            <mxPoint as="offset" />
          </mxGeometry>
        </mxCell>
        <mxCell id="FWXQfIL61U-VRAvymecJ-31" value="return" style="html=1;verticalAlign=bottom;endArrow=open;dashed=1;endSize=8;edgeStyle=elbowEdgeStyle;elbow=vertical;curved=0;rounded=0;" edge="1" parent="1" source="FWXQfIL61U-VRAvymecJ-30" target="FWXQfIL61U-VRAvymecJ-7">
          <mxGeometry relative="1" as="geometry">
            <mxPoint x="640" y="680" as="sourcePoint" />
            <mxPoint x="560" y="680" as="targetPoint" />
            <Array as="points">
              <mxPoint x="440" y="680" />
            </Array>
          </mxGeometry>
        </mxCell>
        <mxCell id="FWXQfIL61U-VRAvymecJ-32" value="add_product_to_offer()" style="html=1;verticalAlign=bottom;startArrow=oval;startFill=1;endArrow=block;startSize=8;edgeStyle=elbowEdgeStyle;elbow=vertical;curved=0;rounded=0;" edge="1" parent="1" source="FWXQfIL61U-VRAvymecJ-15" target="FWXQfIL61U-VRAvymecJ-34">
          <mxGeometry width="60" relative="1" as="geometry">
            <mxPoint x="550" y="760" as="sourcePoint" />
            <mxPoint x="610" y="760" as="targetPoint" />
            <Array as="points">
              <mxPoint x="930" y="760" />
            </Array>
          </mxGeometry>
        </mxCell>
        <mxCell id="FWXQfIL61U-VRAvymecJ-34" value="" style="shape=umlLifeline;perimeter=lifelinePerimeter;whiteSpace=wrap;html=1;container=1;dropTarget=0;collapsible=0;recursiveResize=0;outlineConnect=0;portConstraint=eastwest;newEdgeStyle={&quot;edgeStyle&quot;:&quot;elbowEdgeStyle&quot;,&quot;elbow&quot;:&quot;vertical&quot;,&quot;curved&quot;:0,&quot;rounded&quot;:0};participant=umlEntity;" vertex="1" parent="1">
          <mxGeometry x="960" y="80" width="40" height="1280" as="geometry" />
        </mxCell>
        <mxCell id="FWXQfIL61U-VRAvymecJ-41" value="" style="html=1;points=[];perimeter=orthogonalPerimeter;outlineConnect=0;targetShapes=umlLifeline;portConstraint=eastwest;newEdgeStyle={&quot;edgeStyle&quot;:&quot;elbowEdgeStyle&quot;,&quot;elbow&quot;:&quot;vertical&quot;,&quot;curved&quot;:0,&quot;rounded&quot;:0};" vertex="1" parent="FWXQfIL61U-VRAvymecJ-34">
          <mxGeometry x="15" y="680" width="10" height="550" as="geometry" />
        </mxCell>
        <mxCell id="FWXQfIL61U-VRAvymecJ-35" value="Προσφορά" style="text;html=1;align=center;verticalAlign=middle;resizable=0;points=[];autosize=1;strokeColor=none;fillColor=none;" vertex="1" parent="1">
          <mxGeometry x="940" y="38" width="80" height="30" as="geometry" />
        </mxCell>
        <mxCell id="FWXQfIL61U-VRAvymecJ-43" value="" style="shape=umlLifeline;perimeter=lifelinePerimeter;whiteSpace=wrap;html=1;container=1;dropTarget=0;collapsible=0;recursiveResize=0;outlineConnect=0;portConstraint=eastwest;newEdgeStyle={&quot;edgeStyle&quot;:&quot;elbowEdgeStyle&quot;,&quot;elbow&quot;:&quot;vertical&quot;,&quot;curved&quot;:0,&quot;rounded&quot;:0};participant=umlBoundary;" vertex="1" parent="1">
          <mxGeometry x="1100" y="80" width="50" height="1320" as="geometry" />
        </mxCell>
        <mxCell id="FWXQfIL61U-VRAvymecJ-45" value="" style="html=1;points=[];perimeter=orthogonalPerimeter;outlineConnect=0;targetShapes=umlLifeline;portConstraint=eastwest;newEdgeStyle={&quot;edgeStyle&quot;:&quot;elbowEdgeStyle&quot;,&quot;elbow&quot;:&quot;vertical&quot;,&quot;curved&quot;:0,&quot;rounded&quot;:0};" vertex="1" parent="FWXQfIL61U-VRAvymecJ-43">
          <mxGeometry x="20" y="760" width="10" height="200" as="geometry" />
        </mxCell>
        <mxCell id="FWXQfIL61U-VRAvymecJ-44" value="display_add_more()" style="html=1;verticalAlign=bottom;startArrow=oval;startFill=1;endArrow=block;startSize=8;edgeStyle=elbowEdgeStyle;elbow=vertical;curved=0;rounded=0;" edge="1" parent="1" source="FWXQfIL61U-VRAvymecJ-41" target="FWXQfIL61U-VRAvymecJ-43">
          <mxGeometry width="60" relative="1" as="geometry">
            <mxPoint x="1030" y="840" as="sourcePoint" />
            <mxPoint x="1090" y="840" as="targetPoint" />
            <Array as="points">
              <mxPoint x="1080" y="840" />
            </Array>
          </mxGeometry>
        </mxCell>
        <mxCell id="FWXQfIL61U-VRAvymecJ-46" value="dispatch" style="html=1;verticalAlign=bottom;startArrow=oval;startFill=1;endArrow=block;startSize=8;edgeStyle=elbowEdgeStyle;elbow=vertical;curved=0;rounded=0;" edge="1" parent="1" source="FWXQfIL61U-VRAvymecJ-1" target="FWXQfIL61U-VRAvymecJ-45">
          <mxGeometry width="60" relative="1" as="geometry">
            <mxPoint x="850" y="890" as="sourcePoint" />
            <mxPoint x="910" y="890" as="targetPoint" />
            <Array as="points">
              <mxPoint x="910" y="880" />
              <mxPoint x="220" y="840" />
            </Array>
          </mxGeometry>
        </mxCell>
        <mxCell id="FWXQfIL61U-VRAvymecJ-47" value="frame" style="shape=umlFrame;whiteSpace=wrap;html=1;pointerEvents=0;fillColor=#f8cecc;strokeColor=#b85450;" vertex="1" parent="1">
          <mxGeometry x="310" y="910" width="890" height="90" as="geometry" />
        </mxCell>
        <mxCell id="FWXQfIL61U-VRAvymecJ-48" value="display_categories()" style="html=1;verticalAlign=bottom;endArrow=open;dashed=1;endSize=8;edgeStyle=elbowEdgeStyle;elbow=vertical;curved=0;rounded=0;" edge="1" parent="1" source="FWXQfIL61U-VRAvymecJ-45" target="FWXQfIL61U-VRAvymecJ-7">
          <mxGeometry relative="1" as="geometry">
            <mxPoint x="1100" y="950" as="sourcePoint" />
            <mxPoint x="1020" y="950" as="targetPoint" />
            <Array as="points">
              <mxPoint x="440" y="950" />
            </Array>
          </mxGeometry>
        </mxCell>
        <mxCell id="FWXQfIL61U-VRAvymecJ-49" value="add more" style="text;html=1;align=center;verticalAlign=middle;resizable=0;points=[];autosize=1;strokeColor=none;fillColor=none;" vertex="1" parent="1">
          <mxGeometry x="310" y="940" width="70" height="30" as="geometry" />
        </mxCell>
        <mxCell id="FWXQfIL61U-VRAvymecJ-51" value="calculate_price()" style="html=1;align=left;spacingLeft=2;endArrow=block;rounded=0;edgeStyle=orthogonalEdgeStyle;curved=0;rounded=0;" edge="1" parent="1">
          <mxGeometry relative="1" as="geometry">
            <mxPoint x="980" y="1080" as="sourcePoint" />
            <Array as="points">
              <mxPoint x="1010" y="1080" />
              <mxPoint x="1010" y="1110" />
            </Array>
            <mxPoint x="985" y="1110" as="targetPoint" />
          </mxGeometry>
        </mxCell>
        <mxCell id="FWXQfIL61U-VRAvymecJ-52" value="products_ready()" style="html=1;verticalAlign=bottom;endArrow=open;dashed=1;endSize=8;edgeStyle=elbowEdgeStyle;elbow=vertical;curved=0;rounded=0;" edge="1" parent="1" source="FWXQfIL61U-VRAvymecJ-45" target="FWXQfIL61U-VRAvymecJ-41">
          <mxGeometry relative="1" as="geometry">
            <mxPoint x="1100" y="1030" as="sourcePoint" />
            <mxPoint x="1020" y="1030" as="targetPoint" />
            <Array as="points">
              <mxPoint x="1020" y="1040" />
            </Array>
          </mxGeometry>
        </mxCell>
        <mxCell id="FWXQfIL61U-VRAvymecJ-53" value="Δημιουργία προσφοράς ή&lt;br&gt;&amp;nbsp;Προσθήκη και &lt;br&gt;άλλου προιόντος" style="text;html=1;align=center;verticalAlign=middle;resizable=0;points=[];autosize=1;strokeColor=none;fillColor=none;" vertex="1" parent="1">
          <mxGeometry x="1050" y="23" width="160" height="60" as="geometry" />
        </mxCell>
        <mxCell id="FWXQfIL61U-VRAvymecJ-54" value="" style="shape=umlLifeline;perimeter=lifelinePerimeter;whiteSpace=wrap;html=1;container=1;dropTarget=0;collapsible=0;recursiveResize=0;outlineConnect=0;portConstraint=eastwest;newEdgeStyle={&quot;edgeStyle&quot;:&quot;elbowEdgeStyle&quot;,&quot;elbow&quot;:&quot;vertical&quot;,&quot;curved&quot;:0,&quot;rounded&quot;:0};participant=umlBoundary;" vertex="1" parent="1">
          <mxGeometry x="1270" y="80" width="50" height="1300" as="geometry" />
        </mxCell>
        <mxCell id="FWXQfIL61U-VRAvymecJ-57" value="" style="html=1;points=[];perimeter=orthogonalPerimeter;outlineConnect=0;targetShapes=umlLifeline;portConstraint=eastwest;newEdgeStyle={&quot;edgeStyle&quot;:&quot;elbowEdgeStyle&quot;,&quot;elbow&quot;:&quot;vertical&quot;,&quot;curved&quot;:0,&quot;rounded&quot;:0};" vertex="1" parent="FWXQfIL61U-VRAvymecJ-54">
          <mxGeometry x="20" y="1080" width="10" height="100" as="geometry" />
        </mxCell>
        <mxCell id="FWXQfIL61U-VRAvymecJ-55" value="φόρμα καταχώρησης&lt;br&gt;&amp;nbsp;προσφοράς&amp;nbsp;" style="text;html=1;align=center;verticalAlign=middle;resizable=0;points=[];autosize=1;strokeColor=none;fillColor=none;" vertex="1" parent="1">
          <mxGeometry x="1230" y="43" width="130" height="40" as="geometry" />
        </mxCell>
        <mxCell id="FWXQfIL61U-VRAvymecJ-56" value="display_description_offer()" style="html=1;verticalAlign=bottom;startArrow=oval;startFill=1;endArrow=block;startSize=8;edgeStyle=elbowEdgeStyle;elbow=vertical;curved=0;rounded=0;" edge="1" parent="1" source="FWXQfIL61U-VRAvymecJ-41" target="FWXQfIL61U-VRAvymecJ-54">
          <mxGeometry x="0.1955" width="60" relative="1" as="geometry">
            <mxPoint x="1160" y="1150" as="sourcePoint" />
            <mxPoint x="1220" y="1150" as="targetPoint" />
            <Array as="points">
              <mxPoint x="1260" y="1160" />
            </Array>
            <mxPoint as="offset" />
          </mxGeometry>
        </mxCell>
        <mxCell id="FWXQfIL61U-VRAvymecJ-58" value="" style="shape=umlLifeline;perimeter=lifelinePerimeter;whiteSpace=wrap;html=1;container=1;dropTarget=0;collapsible=0;recursiveResize=0;outlineConnect=0;portConstraint=eastwest;newEdgeStyle={&quot;edgeStyle&quot;:&quot;elbowEdgeStyle&quot;,&quot;elbow&quot;:&quot;vertical&quot;,&quot;curved&quot;:0,&quot;rounded&quot;:0};participant=umlEntity;" vertex="1" parent="1">
          <mxGeometry x="1420" y="80" width="40" height="1310" as="geometry" />
        </mxCell>
        <mxCell id="FWXQfIL61U-VRAvymecJ-59" value="προσφορές" style="text;html=1;align=center;verticalAlign=middle;resizable=0;points=[];autosize=1;strokeColor=none;fillColor=none;" vertex="1" parent="1">
          <mxGeometry x="1395" y="53" width="90" height="30" as="geometry" />
        </mxCell>
        <mxCell id="FWXQfIL61U-VRAvymecJ-60" value="dispatch" style="html=1;verticalAlign=bottom;startArrow=oval;startFill=1;endArrow=block;startSize=8;edgeStyle=elbowEdgeStyle;elbow=vertical;curved=0;rounded=0;" edge="1" parent="1" source="FWXQfIL61U-VRAvymecJ-1" target="FWXQfIL61U-VRAvymecJ-57">
          <mxGeometry width="60" relative="1" as="geometry">
            <mxPoint x="286.800048828125" y="1210" as="sourcePoint" />
            <mxPoint x="1210" y="1210" as="targetPoint" />
          </mxGeometry>
        </mxCell>
        <mxCell id="FWXQfIL61U-VRAvymecJ-61" value="return_description()" style="html=1;verticalAlign=bottom;endArrow=open;dashed=1;endSize=8;edgeStyle=elbowEdgeStyle;elbow=vertical;curved=0;rounded=0;" edge="1" parent="1" source="FWXQfIL61U-VRAvymecJ-54" target="FWXQfIL61U-VRAvymecJ-41">
          <mxGeometry relative="1" as="geometry">
            <mxPoint x="1130" y="1250" as="sourcePoint" />
            <mxPoint x="1050" y="1250" as="targetPoint" />
            <Array as="points">
              <mxPoint x="1230" y="1260" />
            </Array>
          </mxGeometry>
        </mxCell>
        <mxCell id="FWXQfIL61U-VRAvymecJ-62" value="place_offer()" style="html=1;verticalAlign=bottom;startArrow=oval;startFill=1;endArrow=block;startSize=8;edgeStyle=elbowEdgeStyle;elbow=vertical;curved=0;rounded=0;" edge="1" parent="1" source="FWXQfIL61U-VRAvymecJ-41" target="FWXQfIL61U-VRAvymecJ-58">
          <mxGeometry width="60" relative="1" as="geometry">
            <mxPoint x="1060" y="1300" as="sourcePoint" />
            <mxPoint x="1120" y="1300" as="targetPoint" />
            <Array as="points">
              <mxPoint x="1230" y="1310" />
            </Array>
          </mxGeometry>
        </mxCell>
      </root>
    </mxGraphModel>
  </diagram>
</mxfile>
